PathFileType	4	(X/Y/Z)	Patient4_TMGait_0pt2_01_right_24.trc.trc
DataRate	CameraRate	NumFrames	NumMarkers	Units	OrigDataRate	OrigDataStartFrame	OrigNumFrames
46.052631578947	46.052631578947	4	33	mm	46.052631578947	71	       141
Frame#	Time	Sacral			L.Shoulder			Chest			R.Shoulder			Neck			R.ASIS			L.ASIS			R.Thigh.Superior			R.Thigh.Lateral			R.Thigh.Inferior			R.Patella			L.Thigh.Superior			L.Thigh.Lateral			L.Thigh.Inferior			L.Patella			L.Shank.Superior			L.Shank.Lateral			L.Shank.Inferior			R.Shank.Superior			R.Shank.Lateral			R.Shank.Inferior			R.Heel			R.Midfoot.Superior			R.Midfoot.Lateral			R.Toe			L.Heel			L.Midfoot.Lateral			L.Midfoot.Superior			L.Toe			L.Elbow			L.Wrist			R.Elbow			R.Wrist			
		X1	Y1	Z1	X2	Y2	Z2	X3	Y3	Z3	X4	Y4	Z4	X5	Y5	Z5	X6	Y6	Z6	X7	Y7	Z7	X8	Y8	Z8	X9	Y9	Z9	X10	Y10	Z10	X11	Y11	Z11	X12	Y12	Z12	X13	Y13	Z13	X14	Y14	Z14	X15	Y15	Z15	X16	Y16	Z16	X17	Y17	Z17	X18	Y18	Z18	X19	Y19	Z19	X20	Y20	Z20	X21	Y21	Z21	X22	Y22	Z22	X23	Y23	Z23	X24	Y24	Z24	X25	Y25	Z25	X26	Y26	Z26	X27	Y27	Z27	X28	Y28	Z28	X29	Y29	Z29	X30	Y30	Z30	X31	Y31	Z31	X32	Y32	Z32	X33	Y33	Z33	

71	55.400000000000	856.722915629818	1010.825701040621	607.496229675514	978.516941839040	1426.929964722993	365.970405146207	1129.779903813556	1354.114340909201	480.660849694737	1121.032735276308	1435.502734321850	669.087474873900	1015.505477307258	1490.241154041271	517.941716370566	1105.682761083252	931.677896402641	646.385984197704	1010.635606801409	960.331676836372	389.068166156973	1115.306502372986	726.609284060291	605.302873823040	1041.548539162728	618.505018283049	678.901216219564	1092.179451315468	565.972972920566	580.958340284077	1085.566368629551	475.315260696931	585.759754568965	1083.870348324339	767.956125609537	401.068677991698	1013.031622985052	643.908815985174	332.794011850186	1118.562808001296	578.938723864708	377.776414866154	1135.749106283569	512.829688379029	371.780607418196	1115.511756807837	441.430054944907	356.747607399502	1036.875441831233	320.985407315139	298.980580578572	1118.223221831014	211.000590686299	341.643115934131	1043.401631993859	390.797485910637	596.104089636597	968.451602403241	293.429543738903	664.114654553193	985.170604130846	198.511155573361	592.094785725426	829.375815435710	43.915113464990	571.959440365445	1002.859638690291	95.621444704318	598.065357718293	916.738281988844	37.045417843623	641.815492584790	1124.292694117470	41.937575339866	618.212546192878	1018.723263727428	38.876702085662	369.171457180010	1091.857980280789	40.956137499752	288.328941898879	1169.826098199436	111.077102340938	311.975201435042	1299.944249397698	71.610844728551	282.002934141648	808.330067444483	1108.083301077206	339.078941969690	756.002738771279	860.559484097754	409.093676729277	1334.084503499824	1159.738901824868	740.824326544192	1544.174992580986	1175.004034623539	591.942120614190	
72	55.421714285714	855.669417977731	1010.358557380436	604.489292925783	978.276451813033	1425.661999859108	362.165903361275	1129.398901608231	1352.751479791002	477.126287510685	1120.685064674955	1434.595332117941	665.223599852933	1015.218925870074	1489.471605089286	514.110566609942	1104.498683050386	931.062420179841	644.187713606353	1010.033614144007	959.020907281601	386.609688998001	1113.964038175553	725.967784491703	603.500077264447	1039.905474507316	618.091853358432	677.143941431748	1090.618047976652	565.248883454399	579.469852142752	1083.679771208492	474.432986087048	584.468064178298	1082.028784144920	765.430719401791	398.326074635915	1009.047785690289	641.738968538407	331.539675449421	1114.593927956473	576.618726931963	375.972301597936	1130.402762503827	510.916362552144	371.044282610168	1111.598576244392	439.837772130087	355.763395590059	1034.585801751983	318.575636764758	298.170558915258	1116.989844278965	209.708224089493	341.337549480365	1040.953757265249	390.119275817210	594.903351583249	965.559919298318	293.421908290494	663.370442709875	981.624471827294	198.191927313166	591.649754819134	825.060102014699	44.006290158371	571.976585698591	998.531433046190	95.571387283408	597.997149682060	912.405916513162	37.046085690035	641.795159764630	1119.965679470662	41.811629936566	618.226827548689	1018.607402682089	38.094769122744	368.537381557717	1092.376891674348	39.843545985312	288.230903133726	1170.064992246897	109.767441459411	312.460024271846	1300.348859123237	70.031093858894	283.754119476893	808.462282228151	1106.439397947397	336.234971108715	756.047875402317	859.137530233602	407.186405354715	1337.920616983767	1162.306469012934	732.758217731416	1545.769354290098	1184.173104550160	581.548560633452	
73	55.443428571429	854.820733282166	1009.896557041701	601.129324089644	978.157018435415	1424.416979494848	357.989572229563	1129.101799734082	1351.529857325721	473.337481132268	1120.212313416258	1433.786432791543	661.125966316608	1014.923786597621	1488.752190699931	509.907602277832	1103.551050849066	930.521445596390	641.731499817408	1009.716866350525	957.754736537578	383.891501624212	1112.890328496623	725.344392835201	601.397775500415	1038.527603494113	617.699364454086	675.118371181211	1089.285234638144	564.518222204006	577.710794999338	1082.021704687614	473.529850992740	582.936853051620	1080.769683093076	763.141546391198	395.488618149664	1005.847620077155	639.756663820095	330.147221858358	1111.364709884410	574.504226848785	374.145521712260	1125.807817516616	509.011763120909	370.113650314166	1108.042478394362	438.173651038965	354.678774540443	1031.928947760092	316.470965450838	297.517240606303	1114.863316607882	208.334243722738	341.163277925654	1038.684053991427	389.444153766510	593.514424292227	962.796299006633	293.487908089839	662.495704823151	978.160398677576	197.898423182249	591.131792234736	820.756893923156	44.146898584450	571.997161088906	994.224883073528	95.525055464860	597.906520541484	908.089054525137	37.059510954051	641.760094178249	1115.646563575351	41.669597002134	618.245236502527	1016.754653491312	37.683206333175	368.361836762082	1090.970522149373	38.862717037744	288.413429660649	1168.750616058194	108.237945491957	313.084071816070	1298.974237277123	67.709007331647	285.308115293640	809.152730058916	1104.600771363124	332.448049872657	756.900028532081	857.345813206637	403.769354752063	1340.625336374759	1164.324517802871	725.075754839751	1546.562399432062	1191.505198089901	572.084189907714	
74	55.465142857143	854.177922240912	1009.547511857866	597.425827838290	978.138255311173	1423.319660997596	353.499646889192	1128.889723510182	1350.546948951282	469.303853906252	1119.669466689844	1433.169477748268	656.812720329744	1014.626356340484	1488.172281528322	505.383766310464	1102.822286433801	930.111694346698	638.975644660015	1009.644471229929	956.664587448185	380.882066717227	1111.945971283037	724.768118861405	598.990559068009	1037.244150393159	617.400530863821	672.860112108789	1087.964717170344	563.824701055924	575.718490231163	1080.357336286962	472.686349872829	581.219703965630	1080.057855248796	761.239942608464	392.568377097298	1003.497911993558	638.107837974944	328.522132525048	1108.895978103089	572.714716073038	372.267715672668	1122.056486356817	507.264912528301	368.952543234318	1104.968048171344	436.576795767550	353.464292336583	1029.154794981590	314.722887102767	296.853560632279	1112.141159290067	206.960329856618	341.012937158438	1036.421436559132	388.851713852413	591.997736607034	960.021410043897	293.663523579157	661.526206623531	974.703193660262	197.676492068228	590.564611353462	816.461986385453	44.347520117784	572.022144526723	989.940581168879	95.487854771318	597.798343122808	903.785641705741	37.094523487906	641.712427115035	1111.329924769691	41.517723377375	618.268065607760	1013.594159682004	37.540463062521	368.467488778383	1088.098229019159	37.999545854599	288.724006556832	1166.252573636712	106.598081550622	313.718992427827	1296.265344731516	64.932259603262	286.582478476935	810.321600328469	1102.735450264878	327.781669282854	758.479323144984	855.348096311091	398.898584115227	1342.338327870129	1165.906886912621	717.889759045429	1546.738288249849	1197.175054347162	563.586165480386	
